<?xml version="1.0" standalone="no"?>
<!DOCTYPE svg PUBLIC "-//W3C//DTD SVG 20010904//EN"
 "http://www.w3.org/TR/2001/REC-SVG-20010904/DTD/svg10.dtd">
<svg version="1.0" xmlns="http://www.w3.org/2000/svg"
 width="260.000000pt" height="260.000000pt" viewBox="0 0 260.000000 260.000000"
 preserveAspectRatio="xMidYMid meet">
<metadata>
Created by potrace 1.11, written by Peter Selinger 2001-2013
</metadata>
<g transform="translate(0.000000,260.000000) scale(0.100000,-0.100000)"
fill="#000000" stroke="none">
<path d="M0 1300 l0 -1300 1300 0 1300 0 0 1300 0 1300 -1300 0 -1300 0 0
-1300z m1681 926 c174 -37 258 -129 259 -282 0 -114 -39 -198 -108 -233 -71
-35 -130 -34 -189 5 l-25 16 35 36 c74 76 98 191 58 270 -52 100 -230 110
-326 18 -52 -50 -70 -105 -61 -191 10 -98 55 -175 160 -275 295 -279 337 -333
376 -485 25 -96 27 -242 4 -328 -59 -227 -234 -372 -508 -418 -87 -15 -289 -6
-371 16 -211 55 -317 180 -317 375 -1 194 109 325 301 360 128 23 248 -24 263
-104 2 -16 -7 -21 -59 -32 -158 -32 -222 -106 -223 -254 0 -59 5 -86 23 -120
57 -114 217 -160 338 -99 57 29 107 94 131 172 17 57 20 87 16 180 -7 181 -57
275 -242 462 -222 224 -263 282 -285 397 -49 268 240 525 594 527 50 0 120 -6
156 -13z"/>
</g>
</svg>
